<svg width="1119" height="1043" viewBox="0 0 1119 1043" fill="none" xmlns="http://www.w3.org/2000/svg">
<path fill-rule="evenodd" clip-rule="evenodd" d="M560.203 867.813C567.912 898.539 577.484 940.553 581.211 956.774L581.32 957.322C577.594 958.418 575.109 956.774 572.698 955.13C571.858 954.582 571.054 954.034 570.214 953.632C569.3 953.194 568.424 952.683 567.474 952.244C563.418 950.125 559.363 948.043 554.796 947.202C549.024 946.106 546.759 947.458 549.024 953.961C553.846 967.698 562.834 975.261 577.484 975.772H578.617C581.211 975.772 583.878 975.772 584.645 979.316C585.449 983.079 585.083 986.879 581.905 989.29C579.347 991.263 576.242 992.651 573.173 993.711C571.054 994.478 568.898 994.953 566.706 995.464C565.355 995.756 564.039 996.049 562.688 996.451C554.066 998.825 542.557 1009.79 545.37 1013C550.412 1018.74 557.756 1018.08 564.697 1017.46C565.318 1017.42 565.976 1017.35 566.56 1017.31C569.483 1017.06 572.698 1016.76 575.182 1015.41C590.49 1006.86 604.812 1010.95 619.425 1017.6C634.331 1024.36 649.603 1030.43 664.838 1036.46C665.459 1036.71 666.153 1036.97 666.81 1037.26C671.962 1039.31 677.442 1040.66 682.849 1041.72C682.922 1041.72 683.032 1041.72 683.105 1041.75C686.101 1042.34 689.827 1043.1 691.763 1039.52C693.59 1036.05 692.604 1032.44 690.667 1029.15C688.11 1024.73 684.274 1021.62 679.817 1019.32C677.004 1017.86 674.154 1016.47 671.268 1015.12C669.989 1014.5 668.71 1013.88 667.432 1013.26C676.967 1012.01 686.064 1013.55 695.198 1015.05C698.559 1015.59 701.883 1016.18 705.245 1016.58C706.341 1016.73 707.437 1016.95 708.46 1017.17C709.957 1017.46 711.455 1017.79 712.99 1017.9C714.013 1017.93 715.109 1018.12 716.205 1018.33C719.602 1018.92 723.11 1019.58 724.644 1016.11C726.909 1010.99 722.379 1006.72 718.543 1003.68C708.46 995.83 696.915 990.788 684.237 990.13C668.162 989.253 651.977 989.18 635.902 989.546C629.107 989.692 625.344 987.281 623.481 981.033C616.868 958.565 607.406 908.074 601.195 874.316C587.093 873.038 575.036 870.882 560.057 867.886L560.13 867.74L560.203 867.813Z" fill="#FAB90B"/>
<path fill-rule="evenodd" clip-rule="evenodd" d="M646.643 820.429C654.352 851.154 663.924 893.168 667.65 909.39L667.76 909.938C664.033 911.07 661.549 909.39 659.138 907.746C658.298 907.198 657.494 906.65 656.654 906.211C655.74 905.773 654.827 905.261 653.913 904.823C649.858 902.704 645.803 900.621 641.236 899.781C635.464 898.685 633.199 900.037 635.464 906.54C640.25 920.277 649.274 927.839 663.924 928.351H665.056C667.65 928.351 670.317 928.351 671.085 931.895C671.888 935.658 671.523 939.457 668.345 941.869C665.787 943.841 662.682 945.193 659.613 946.289C657.494 947.056 655.338 947.531 653.146 948.043C651.794 948.335 650.479 948.627 649.127 949.029C640.542 951.404 628.997 962.364 631.81 965.579C636.852 971.315 644.195 970.658 651.137 970.037C651.758 969.963 652.416 969.927 653 969.89C655.923 969.635 659.138 969.342 661.622 967.991C676.93 959.442 691.252 963.533 705.865 970.146C720.771 976.905 736.043 982.97 751.277 988.998C751.898 989.254 752.593 989.509 753.25 989.802C758.402 991.848 763.882 993.199 769.289 994.259C769.362 994.259 769.471 994.259 769.545 994.295C772.54 994.88 776.267 995.647 778.203 992.067C780.03 988.596 779.044 984.979 777.107 981.691C774.55 977.27 770.677 974.165 766.257 971.863C763.443 970.402 760.594 969.014 757.707 967.625C756.429 967.004 755.15 966.383 753.871 965.762C763.37 964.52 772.504 966.054 781.637 967.552C784.999 968.1 788.323 968.685 791.721 969.087C792.817 969.233 793.913 969.452 794.936 969.671C796.434 969.963 797.932 970.292 799.466 970.365C800.489 970.402 801.585 970.585 802.681 970.804C806.079 971.388 809.586 972.046 811.121 968.575C813.386 963.497 808.855 959.186 805.019 956.154C794.936 948.299 783.391 943.257 770.714 942.599C754.639 941.722 738.454 941.649 722.379 942.015C715.583 942.161 711.82 939.75 709.957 933.502C703.344 911.034 693.882 860.543 687.671 826.785C673.569 825.507 661.513 823.351 646.534 820.355H646.57L646.643 820.429Z" fill="#FAB90B"/>
<path d="M618.731 339.636V274.531L961.971 67.1992C1175.88 240.408 1082.5 452.052 976 520.444L618.767 339.636H618.731Z" fill="black"/>
<path fill-rule="evenodd" clip-rule="evenodd" d="M1.73941 406.678C6.08699 388.484 13.8688 371.605 22.9659 355.53C52.6682 302.957 96.2172 268.615 155.549 258.97C157.229 258.714 158.947 258.495 160.627 258.202L161.212 258.129H161.321C246.081 242.456 335.005 295.796 363.648 314.246C366.461 315.927 369.275 317.753 371.942 319.653C378.372 323.708 375.047 317.863 370.663 311.579C370.663 311.579 363.356 301.386 351.629 290.974C348.194 288.16 343.956 284.799 338.988 281.182C338.549 280.89 338.111 280.598 337.745 280.269C298.8 252.43 215.867 209.1 106.483 240.483C105.899 240.666 105.278 240.812 104.657 240.995C102.903 241.506 101.076 242.054 99.286 242.346C96.3268 242.821 93.4771 241.616 91.9792 239.131C90.3351 236.318 92.2715 234.053 94.2443 232.336C96.2172 230.655 98.1535 228.938 100.309 227.477C130.158 207.127 163.367 198.323 198.879 195.765C348.523 185.061 463.168 197.373 463.168 503.275C463.168 558.405 472.703 570.096 505.182 572.178C574.049 576.599 632.577 503.64 633.637 450.738C634.623 401.709 636.669 361.229 656.179 316.365C659.138 309.496 661.805 302.555 662.609 300.546C662.682 300.326 662.755 300.144 662.791 300.034V299.961C663.741 297.879 664.764 295.76 665.86 293.568C668.052 289.33 670.281 285.457 672.546 281.913C675.286 278.004 678.428 272.195 676.857 266.496C675.323 260.723 669.806 257.618 667.723 256.412C654.827 249.178 644.159 232.592 638.277 218.818C630.349 200.259 629.107 179.58 629.472 159.377C629.947 134.095 633.162 108.229 644.378 85.5412C646.972 95.1497 650.662 104.795 657.275 112.248C663.887 119.701 673.35 128.25 682.41 124.085C693.188 119.116 694.649 67.0913 692.567 54.3043C709.446 61.5381 734.654 77.6132 750.437 113.125C758.584 98.73 756.977 51.4912 754.821 38.5215C778.386 48.6415 816.199 73.8136 831.178 136.287C838.996 132.999 837.9 95.7708 836.366 86.491C853.427 93.8344 882.18 113.526 887.952 166.574C894.455 158.939 899.241 149.842 901.908 140.196C922.952 157.806 930.405 172.493 926.021 199.053C923.865 212.133 922.623 219.439 917.216 231.277C927.227 246.511 930.697 265.911 928.542 284.799C938.662 286.151 946.444 288.672 949.513 289.804C976.402 300.144 995.363 319.397 1006.4 346.908C1008 350.926 1007.46 351.876 1003.11 351.986C1000.99 352.022 998.907 352.132 996.788 352.242C988.239 352.79 972.968 354.653 963.396 360.462C962.446 361.083 961.532 361.741 960.546 362.508C959.486 363.385 958.646 364.042 957.879 364.59C957.623 364.809 957.404 364.992 957.112 365.211C956.491 365.723 955.833 366.271 955.212 366.782C949.549 371.641 945.202 375.222 941.987 377.925C942.096 378.729 942.169 379.569 942.242 380.519C942.644 384.976 943.229 390.785 946.699 396.521C955.029 410.112 971.798 435.503 980.603 448.765C986.814 458.118 991.892 467.982 993.39 479.235C995.107 492.387 991.856 504.005 981.992 513.394C977.534 518.546 972.018 522.345 965.697 524.976C965.697 524.976 965.624 525.012 965.624 525.049C965.551 525.085 965.515 525.159 965.442 525.232C965.222 525.451 964.967 525.67 964.638 525.816C960.327 527.899 955.797 529.104 951.23 529.506C947.722 559.135 941.694 587.998 935.666 612.329C898.547 752.877 756.831 811.332 756.794 811.332C756.1 811.624 754.894 816.41 753.616 821.342C752.41 825.946 751.204 830.659 750.401 831.974C747.624 836.504 743.057 841.071 739.148 845.053C738.673 845.528 738.162 846.076 737.687 846.514C726.361 857.986 712.624 866.024 697.243 870.773C677.624 876.874 656.8 877.788 636.231 877.642C600.171 877.422 583.439 873.952 551.544 867.412C548.329 866.718 544.968 866.06 541.388 865.33C530.281 863.064 519.211 860.471 509.091 855.465C494.295 848.122 493.016 836.504 491.665 824.302C490.532 813.962 489.363 803.258 479.901 794.343C456.592 772.386 442.928 742.574 434.781 712.032C432.406 703.044 431.054 694.02 432.917 684.996C433.794 680.795 432.479 678.712 429.739 676.045C424.113 670.529 418.852 664.683 414.248 658.326C401.717 645.722 391.926 630.597 385.277 612.329C384.765 610.831 384.4 609.261 384.071 607.653C383.523 604.876 382.938 602.063 381.148 599.652C379.139 600.931 378.554 602.867 377.97 604.694C377.86 604.986 377.787 605.315 377.678 605.644C369.275 630.743 365.694 656.134 372.453 682.402C372.782 683.644 373.33 684.996 373.841 686.421C375.705 691.317 377.824 696.76 372.526 699.573C365.877 703.117 361.383 696.833 357.766 691.719C357.328 691.097 356.889 690.476 356.451 689.928C330.037 654.307 330.219 599.615 363.064 563.118C363.356 562.789 363.831 562.314 364.306 561.839C366.827 559.355 370.919 555.336 367.704 552.961C366.571 552.121 365.073 552.011 363.648 552.121C360.324 552.377 356.415 554.642 353.346 556.359C353.163 556.469 352.98 556.578 352.798 556.651C352.652 556.724 352.542 556.797 352.396 556.87C348.852 558.88 345.564 561.181 342.495 563.848C336.394 569.146 331.498 575.686 327.699 582.846C325.616 586.719 323.899 590.811 322.474 594.939C311.441 626.87 311.112 659.422 320.83 692.011C321.086 692.924 321.597 693.874 322.072 694.86C323.643 698.039 325.397 701.583 321.013 704.177C315.386 707.538 311.623 703.409 308.116 699.646C307.86 699.354 307.568 699.062 307.276 698.733C306.509 697.929 305.888 697.016 305.266 696.103C304.938 695.628 304.572 695.08 304.207 694.605C282.286 665.158 276.295 631.985 280.935 596.218C281.19 594.208 281.483 592.199 281.885 590.19C284.807 574.37 291.347 559.282 301.978 547.079C313.633 533.708 329.416 524.391 345.673 517.852C347.317 517.158 348.962 516.427 350.423 515.404C356.999 510.947 352.542 508.755 349.108 508.499C324.191 506.599 301.029 510.691 282.725 529.47C268.732 543.828 260.548 561.145 256.676 580.727C252.876 599.908 250.903 619.198 252.767 638.744V639.109C253.132 642.288 253.57 646.124 249.186 647.366C245.204 648.498 242.61 645.758 240.637 642.945C237.057 637.757 234.317 632.094 232.417 626.03C225.11 602.977 224.306 579.522 226.973 555.592C228.398 542.951 232.198 530.602 238.372 519.459C246.264 505.101 257.991 492.935 272.093 484.532C279.181 480.294 286.89 477.006 294.927 474.887C302.709 472.732 310.783 472.001 318.857 471.234C321.378 471.015 323.862 470.759 326.347 470.467C326.931 470.394 327.589 470.357 328.21 470.321C330.219 470.174 332.265 470.028 334.165 469.261C338.184 467.617 335.115 464.767 332.411 463.489C332.265 463.416 332.156 463.379 332.01 463.306C331.863 463.233 331.717 463.196 331.571 463.123C317.761 460.164 303.257 457.351 289.63 458.995C269.098 461.479 248.967 465.023 231.723 475.947C216.853 485.409 203.628 497.319 192.558 511.056C180.502 525.999 170.966 542.878 163.513 560.56C152.517 586.755 146.963 614.266 147 642.872C147 647.658 146.561 652.481 146.086 657.267C146.05 657.815 145.977 658.436 145.94 658.984C145.721 661.395 144.516 663.368 141.995 663.952C139.328 664.537 138.341 662.381 137.537 660.555C137.391 660.262 137.282 660.007 137.136 659.714C136.222 657.997 135.418 656.171 134.907 654.307C126.066 622.194 125.298 589.824 130.486 557.236C134.03 535.096 140.095 513.833 150.434 493.922C152.443 490.122 154.489 486.396 156.681 482.742C161.139 475.253 166.071 468.238 171.368 461.589C220.142 411.72 276.185 408.943 323.132 413.035C323.388 411.793 322.438 410.149 321.415 409.126C317.067 405.07 311.514 402.513 305.961 400.248C290.068 393.818 273.189 389.47 256.055 388.557C234.171 387.388 214.186 393.343 194.239 401.636C176.995 408.76 161.066 418.807 147 431.083C131.655 444.454 118.686 460.31 107.689 477.408C91.3946 502.69 80.617 530.419 75.4657 560.268C74.6254 565.017 73.3832 569.694 72.1045 574.37C71.8853 575.247 71.6661 576.051 71.4104 576.928C70.7162 579.375 69.1087 581.239 66.4051 581.348C63.5555 581.494 62.8613 578.974 62.3498 577.001C62.3498 576.891 62.2768 576.782 62.2402 576.635C61.3999 573.567 60.7423 570.425 60.4866 567.246C57.6734 533.16 62.7882 500.133 73.8216 468.019C81.5669 445.587 91.7965 424.507 106.191 405.655C108.931 402.038 111.781 398.567 114.74 395.169C120.768 388.228 127.198 381.761 133.957 375.77C206.624 323.562 277.756 345.373 330.146 361.375C336.942 363.458 343.408 365.431 349.583 367.148C353.273 368.171 355.355 363.275 352.213 361.119C255.543 296.161 180.575 298.865 132.094 315.123C132.094 315.123 67.3916 335.034 13.8688 412.158C13.2477 413.108 12.5901 414.204 11.896 415.336C10.0692 418.551 8.05985 422.095 5.10057 422.461C4.6987 422.497 3.45652 422.607 2.39703 421.986C-0.452649 420.269 -0.744927 414.094 1.92208 406.641V406.568L1.73941 406.678ZM156.608 482.815C156.28 483.29 155.914 483.765 155.585 484.204C155.732 484.021 155.878 483.838 155.987 483.619C156.17 483.363 156.353 483.108 156.572 482.815H156.608Z" fill="#FAB90B"/>
<path fill-rule="evenodd" clip-rule="evenodd" d="M779.117 236.1C754.894 254.038 741.486 284.617 747.003 316.292C754.785 361.01 797.384 390.969 842.138 383.187C886.893 375.405 916.851 332.806 909.069 288.088C908.996 287.686 908.923 287.211 908.85 286.809C840.166 300.765 798.955 263.829 779.08 236.1H779.117Z" fill="white"/>
<path fill-rule="evenodd" clip-rule="evenodd" d="M807.942 265.945C801.329 275.663 798.334 287.902 800.489 300.36C804.91 325.898 829.242 342.996 854.779 338.538C878.672 334.374 895.223 312.818 893.579 289.108C856.533 292.871 828.328 281.326 807.906 265.908H807.942V265.945ZM820.62 312.782C821.533 318.006 826.538 321.513 831.762 320.6C836.987 319.687 840.494 314.682 839.581 309.457C838.667 304.233 833.662 300.725 828.438 301.639C823.213 302.552 819.706 307.557 820.62 312.782Z" fill="black"/>
<path fill-rule="evenodd" clip-rule="evenodd" d="M741.121 590.956C581.028 548.065 486.039 383.514 528.93 223.457C571.821 63.3638 736.335 -31.6254 896.429 11.2659C933.109 21.0936 966.392 37.3148 995.327 58.3951L637.51 274.569V339.673L1013.16 529.761C940.562 591.321 839.983 617.443 741.121 590.956Z" fill="#FAB90B"/>
<path fill-rule="evenodd" clip-rule="evenodd" d="M983.087 65.8118C980.749 61.9391 975.707 60.697 971.835 63.0352L629.362 269.965V344.678L988.75 526.546C992.769 528.592 997.701 526.948 999.71 522.929C1001.76 518.91 1000.11 513.978 996.094 511.969L645.656 334.631V279.172L980.311 77.0278C984.183 74.6896 985.426 69.6479 983.087 65.7752H983.051L983.087 65.8118Z" fill="black"/>
<path fill-rule="evenodd" clip-rule="evenodd" d="M750.182 557.089C608.794 519.239 524.875 373.869 562.761 232.518C600.647 91.1299 745.98 7.21056 887.368 45.0966C1028.76 82.9827 1112.68 228.316 1074.79 369.704C1036.9 511.092 891.57 595.011 750.182 557.125V557.089ZM741.121 590.919C581.028 548.064 486.039 383.514 528.93 223.457C571.821 63.3638 736.335 -31.6254 896.429 11.2659C1056.52 54.1571 1151.51 218.671 1108.62 378.764C1065.73 538.858 901.215 633.847 741.121 590.956V590.919Z" fill="#FAB90B"/>
<path d="M593.084 303.761C593.084 334.048 617.671 358.636 647.958 358.636C678.245 358.636 702.833 334.048 702.833 303.761C702.833 273.474 678.245 248.887 647.958 248.887C617.671 248.887 593.084 273.474 593.084 303.761Z" fill="black"/>
</svg>
