<svg width="24" height="25" viewBox="0 0 24 25" fill="none" xmlns="http://www.w3.org/2000/svg">
<path d="M10.329 4.40371L11.4283 0.824142C11.6042 0.252467 12.4134 0.252467 12.5893 0.824142L13.6887 4.40371C14.6033 7.35883 16.9164 9.67192 19.8716 10.5866L23.4511 11.686C24.0228 11.8619 24.0228 12.671 23.4511 12.8469L19.8716 13.9463C16.9164 14.861 14.6033 17.1741 13.6887 20.1292L12.5893 23.7087C12.4134 24.2804 11.6042 24.2804 11.4283 23.7087L10.329 20.1292C9.41429 17.1741 7.1012 14.861 4.14608 13.9463L0.566533 12.8469C-0.00514189 12.671 -0.00514189 11.8619 0.566533 11.686L4.14608 10.5866C7.1012 9.67192 9.41429 7.35883 10.329 4.40371Z" fill="#FEC426"/>
</svg>
