<svg width="192" height="55" viewBox="0 0 192 55" fill="none" xmlns="http://www.w3.org/2000/svg">
<path d="M81.5241 1.00303L72.8764 15.0124C72.7611 15.2199 72.6573 15.4736 72.5651 15.7734C72.4728 16.0732 72.4267 16.3384 72.4267 16.569V24.4903C72.4267 24.7209 72.346 24.9169 72.1846 25.0783C72.0231 25.2398 71.8271 25.3205 71.5965 25.3205H66.3733C66.1427 25.3205 65.9467 25.2398 65.7852 25.0783C65.6238 24.9169 65.5431 24.7209 65.5431 24.4903V16.6036C65.5431 16.373 65.497 16.1078 65.4047 15.808C65.3355 15.4851 65.2433 15.2314 65.128 15.047C63.7444 12.6717 62.3261 10.3426 60.8733 8.05959C59.4435 5.77658 58.0138 3.4244 56.584 1.00303C56.4687 0.795483 56.4457 0.587937 56.5148 0.380391C56.584 0.149785 56.7339 0.0344814 56.9645 0.0344814H63.1217C63.3523 0.0344814 63.5829 0.103663 63.8135 0.242027C64.0672 0.38039 64.2517 0.553345 64.367 0.760891L68.6217 8.16336C68.737 8.34784 68.8754 8.44009 69.0368 8.44009C69.1982 8.44009 69.3366 8.34784 69.4519 8.16336L73.672 0.760891C73.7873 0.553345 73.9602 0.38039 74.1908 0.242027C74.4445 0.103663 74.6866 0.0344814 74.9172 0.0344814H81.1436C81.3742 0.0344814 81.5357 0.115193 81.6279 0.276617C81.7432 0.438042 81.7086 0.680179 81.5241 1.00303Z" fill="#FEC426"/>
<path d="M55.3784 0.830185V24.4904C55.3784 24.721 55.2976 24.917 55.1362 25.0785C54.9748 25.2399 54.7788 25.3206 54.5482 25.3206H49.4287C49.1981 25.3206 48.956 25.2514 48.7023 25.113C48.4486 24.9747 48.2526 24.8133 48.1142 24.6288L39.086 11.9339C38.9476 11.7494 38.7977 11.6802 38.6363 11.7263C38.498 11.7494 38.4288 11.8762 38.4288 12.1068V24.4904C38.4288 24.721 38.3481 24.917 38.1866 25.0785C38.0252 25.2399 37.8292 25.3206 37.5986 25.3206H32.4445C32.2139 25.3206 32.0179 25.2399 31.8565 25.0785C31.6951 24.917 31.6144 24.721 31.6144 24.4904V0.830185C31.6144 0.599577 31.6951 0.403562 31.8565 0.242138C32.0179 0.0807127 32.2139 0 32.4445 0H37.6332C37.8638 0 38.1059 0.0691824 38.3596 0.207547C38.6133 0.32285 38.8093 0.472744 38.9476 0.657228L47.9413 13.3521C48.0797 13.5366 48.218 13.6173 48.3564 13.5943C48.5178 13.5712 48.5985 13.4444 48.5985 13.2138V0.830185C48.5985 0.599577 48.6792 0.403562 48.8407 0.242138C49.0021 0.0807127 49.1981 0 49.4287 0H54.5482C54.7788 0 54.9748 0.0807127 55.1362 0.242138C55.2976 0.403562 55.3784 0.599577 55.3784 0.830185Z" fill="#FEC426"/>
<path d="M27.5363 25.3205H22.313C22.0594 25.3205 21.8518 25.2398 21.6904 25.0783C21.552 24.9169 21.4829 24.7209 21.4829 24.4903V0.864664C21.4829 0.634058 21.552 0.438042 21.6904 0.276617C21.8518 0.115193 22.0594 0.0344814 22.313 0.0344814H27.5363C27.7669 0.0344814 27.9629 0.115193 28.1243 0.276617C28.2858 0.438042 28.3665 0.634058 28.3665 0.864664V24.4903C28.3665 24.7209 28.2858 24.9169 28.1243 25.0783C27.9629 25.2398 27.7669 25.3205 27.5363 25.3205Z" fill="#FEC426"/>
<path d="M19.0942 6.36474H14.2515C14.0209 6.36474 13.8249 6.44545 13.6634 6.60688C13.502 6.7683 13.4213 6.96432 13.4213 7.19492V24.4904C13.4213 24.721 13.3406 24.917 13.1792 25.0785C13.0408 25.2399 12.8448 25.3206 12.5911 25.3206H7.40247C7.17186 25.3206 6.97585 25.2399 6.81442 25.0785C6.653 24.917 6.57229 24.721 6.57229 24.4904V7.19492C6.57229 6.96432 6.49157 6.7683 6.33015 6.60688C6.19178 6.44545 5.99577 6.36474 5.7421 6.36474H0.830183C0.599577 6.36474 0.403561 6.28403 0.242137 6.1226C0.0807123 5.96118 0 5.76516 0 5.53456V0.830185C0 0.599577 0.0807123 0.403562 0.242137 0.242138C0.403561 0.0807127 0.599577 0 0.830183 0H19.0942C19.3479 0 19.5439 0.0807127 19.6823 0.242138C19.8437 0.403562 19.9244 0.599577 19.9244 0.830185V5.53456C19.9244 5.76516 19.8437 5.96118 19.6823 6.1226C19.5439 6.28403 19.3479 6.36474 19.0942 6.36474Z" fill="#FEC426"/>
<path d="M174.111 45.0537C175.356 45.8609 176.59 46.495 177.812 46.9562C179.034 47.4175 180.175 47.6481 181.236 47.6481C182.251 47.6481 183.023 47.5097 183.554 47.233C184.084 46.9332 184.349 46.495 184.349 45.9185C184.349 45.6187 184.234 45.3881 184.004 45.2267C183.773 45.0422 183.462 44.8923 183.07 44.777C182.701 44.6617 182.262 44.5695 181.755 44.5003C181.248 44.4311 180.729 44.3389 180.199 44.2236C179.691 44.1313 179.092 44.0275 178.4 43.9122C177.731 43.7739 177.039 43.5894 176.324 43.3588C175.609 43.1051 174.895 42.7938 174.18 42.4248C173.488 42.0558 172.865 41.5831 172.312 41.0066C171.758 40.4301 171.309 39.7498 170.963 38.9657C170.64 38.1586 170.478 37.2131 170.478 36.1293C170.478 34.5381 170.79 33.2236 171.412 32.1859C172.035 31.1482 172.819 30.3295 173.765 29.7299C174.733 29.1073 175.805 28.6807 176.982 28.4501C178.158 28.1964 179.299 28.0696 180.406 28.0696C182.343 28.0696 184.073 28.3578 185.595 28.9343C187.14 29.4878 188.616 30.3064 190.022 31.3903C190.207 31.5517 190.311 31.7477 190.334 31.9783C190.357 32.209 190.299 32.4165 190.161 32.601L187.463 36.4406C187.324 36.6251 187.14 36.7404 186.909 36.7865C186.679 36.8326 186.471 36.7865 186.287 36.6481C185.11 35.9102 184.015 35.3913 183 35.0915C181.986 34.7687 181.052 34.6073 180.199 34.6073C179.945 34.6073 179.645 34.6188 179.299 34.6418C178.976 34.6418 178.665 34.688 178.365 34.7802C178.065 34.8494 177.812 34.9762 177.604 35.1607C177.42 35.3452 177.327 35.5989 177.327 35.9217C177.327 36.2446 177.57 36.5328 178.054 36.7865C178.538 37.0402 179.092 37.2592 179.714 37.4437C180.337 37.6282 180.936 37.7781 181.513 37.8934C182.09 37.9856 182.458 38.0433 182.62 38.0664C183.45 38.2278 184.361 38.4699 185.353 38.7928C186.344 39.0926 187.267 39.5538 188.12 40.1764C188.996 40.776 189.723 41.5716 190.299 42.5632C190.899 43.5317 191.198 44.7539 191.198 46.2298C191.198 47.6135 190.956 48.8126 190.472 49.8273C189.988 50.8189 189.308 51.6375 188.431 52.2832C187.578 52.9289 186.54 53.4132 185.318 53.7361C184.119 54.0359 182.781 54.1857 181.305 54.1857C180.106 54.1857 178.988 54.082 177.95 53.8744C176.912 53.6899 175.944 53.4247 175.044 53.0788C174.145 52.7329 173.303 52.3294 172.519 51.8682C171.758 51.3839 171.055 50.8765 170.409 50.3462C170.225 50.2078 170.121 50.0233 170.098 49.7927C170.075 49.539 170.133 49.32 170.271 49.1355L172.934 45.2959C173.073 45.1114 173.257 44.9961 173.488 44.95C173.719 44.9038 173.926 44.9384 174.111 45.0537Z" fill="#FEC426"/>
<path d="M153.745 53.7368H148.591C148.361 53.7368 148.165 53.6561 148.003 53.4947C147.842 53.3333 147.761 53.1373 147.761 52.9067V29.2464C147.761 29.0158 147.842 28.8198 148.003 28.6584C148.165 28.497 148.361 28.4162 148.591 28.4162H159.349C160.687 28.4162 161.92 28.6469 163.05 29.1081C164.18 29.5462 165.137 30.1689 165.921 30.976C166.729 31.7831 167.351 32.7401 167.789 33.847C168.251 34.9539 168.481 36.1762 168.481 37.5137C168.481 38.2516 168.389 38.9896 168.204 39.7275C168.043 40.4424 167.801 41.1227 167.478 41.7684C167.155 42.4141 166.775 43.0021 166.337 43.5325C165.898 44.0398 165.403 44.4665 164.849 44.8124C164.665 44.9507 164.538 45.1237 164.469 45.3312C164.423 45.5157 164.469 45.7002 164.607 45.8847C165.483 47.0377 166.406 48.2253 167.374 49.4476C168.343 50.6698 169.208 51.7882 169.969 52.8029C170.107 52.9874 170.142 53.1949 170.072 53.4255C170.003 53.6331 169.853 53.7368 169.623 53.7368H163.189C162.958 53.7368 162.704 53.6792 162.428 53.5639C162.174 53.4255 161.978 53.2641 161.84 53.0796C161.102 52.1111 160.364 51.131 159.626 50.1394C158.911 49.1478 158.196 48.1446 157.481 47.13C157.343 46.9455 157.147 46.7956 156.893 46.6803C156.64 46.5419 156.397 46.4727 156.167 46.4727H155.406C155.175 46.4727 154.979 46.5534 154.818 46.7149C154.656 46.8763 154.576 47.0723 154.576 47.3029V52.9067C154.576 53.1373 154.495 53.3333 154.333 53.4947C154.172 53.6561 153.976 53.7368 153.745 53.7368ZM155.406 40.108H159.072C159.349 40.108 159.637 40.0619 159.937 39.9696C160.237 39.8543 160.514 39.6929 160.767 39.4854C161.021 39.2547 161.229 38.978 161.39 38.6552C161.551 38.3323 161.632 37.9518 161.632 37.5137C161.632 37.2831 161.586 37.0179 161.494 36.7181C161.425 36.3952 161.286 36.0954 161.079 35.8187C160.894 35.5189 160.629 35.2768 160.283 35.0923C159.96 34.8848 159.557 34.781 159.072 34.781H155.406C155.175 34.781 154.979 34.8617 154.818 35.0231C154.656 35.1845 154.576 35.3806 154.576 35.6112V39.2778C154.576 39.5084 154.656 39.7044 154.818 39.8659C154.979 40.0273 155.175 40.108 155.406 40.108Z" fill="#FEC426"/>
<path d="M132.315 35.6112V37.064C132.315 37.2946 132.396 37.4906 132.557 37.652C132.719 37.8135 132.915 37.8942 133.145 37.8942H142.52C142.75 37.8942 142.946 37.9749 143.108 38.1363C143.269 38.2977 143.35 38.4937 143.35 38.7244V43.4979C143.35 43.7285 143.269 43.9245 143.108 44.086C142.946 44.2474 142.75 44.3281 142.52 44.3281H133.145C132.915 44.3281 132.719 44.4088 132.557 44.5702C132.396 44.7317 132.315 44.9277 132.315 45.1583V46.4727C132.315 46.7033 132.396 46.8994 132.557 47.0608C132.719 47.2222 132.915 47.3029 133.145 47.3029H143.903C144.134 47.3029 144.33 47.3836 144.491 47.5451C144.653 47.7065 144.733 47.9025 144.733 48.1331V52.9067C144.733 53.1373 144.653 53.3333 144.491 53.4947C144.33 53.6561 144.134 53.7368 143.903 53.7368H126.296C126.066 53.7368 125.87 53.6561 125.708 53.4947C125.547 53.3333 125.466 53.1373 125.466 52.9067V29.2464C125.466 29.0158 125.547 28.8198 125.708 28.6584C125.87 28.497 126.066 28.4162 126.296 28.4162H143.903C144.134 28.4162 144.33 28.497 144.491 28.6584C144.653 28.8198 144.733 29.0158 144.733 29.2464V33.9508C144.733 34.1814 144.653 34.3774 144.491 34.5388C144.33 34.7003 144.134 34.781 143.903 34.781H133.145C132.915 34.781 132.719 34.8617 132.557 35.0231C132.396 35.1845 132.315 35.3806 132.315 35.6112Z" fill="#FEC426"/>
<path d="M123.387 34.781H118.544C118.314 34.781 118.118 34.8617 117.956 35.0231C117.795 35.1845 117.714 35.3806 117.714 35.6112V52.9067C117.714 53.1373 117.633 53.3333 117.472 53.4947C117.333 53.6561 117.137 53.7368 116.884 53.7368H111.695C111.465 53.7368 111.269 53.6561 111.107 53.4947C110.946 53.3333 110.865 53.1373 110.865 52.9067V35.6112C110.865 35.3806 110.784 35.1845 110.623 35.0231C110.484 34.8617 110.288 34.781 110.035 34.781H105.123C104.892 34.781 104.696 34.7003 104.535 34.5388C104.373 34.3774 104.293 34.1814 104.293 33.9508V29.2464C104.293 29.0158 104.373 28.8198 104.535 28.6584C104.696 28.497 104.892 28.4162 105.123 28.4162H123.387C123.641 28.4162 123.837 28.497 123.975 28.6584C124.136 28.8198 124.217 29.0158 124.217 29.2464V33.9508C124.217 34.1814 124.136 34.3774 123.975 34.5388C123.837 34.7003 123.641 34.781 123.387 34.781Z" fill="#FEC426"/>
<path d="M86.8525 45.0537C88.0977 45.8609 89.3315 46.495 90.5537 46.9562C91.7759 47.4175 92.9174 47.6481 93.9782 47.6481C94.9929 47.6481 95.7654 47.5097 96.2958 47.233C96.8262 46.9332 97.0914 46.495 97.0914 45.9185C97.0914 45.6187 96.9761 45.3881 96.7455 45.2267C96.5149 45.0422 96.2036 44.8923 95.8115 44.777C95.4426 44.6617 95.0044 44.5695 94.4971 44.5003C93.9897 44.4311 93.4709 44.3389 92.9405 44.2236C92.4331 44.1313 91.8336 44.0275 91.1417 43.9122C90.473 43.7739 89.7812 43.5894 89.0663 43.3588C88.3514 43.1051 87.6365 42.7938 86.9216 42.4248C86.2298 42.0558 85.6072 41.5831 85.0537 41.0066C84.5003 40.4301 84.0506 39.7498 83.7047 38.9657C83.3818 38.1586 83.2204 37.2131 83.2204 36.1293C83.2204 34.5381 83.5317 33.2236 84.1544 32.1859C84.777 31.1482 85.5611 30.3295 86.5066 29.7299C87.4751 29.1073 88.5474 28.6807 89.7235 28.4501C90.8996 28.1964 92.0411 28.0696 93.148 28.0696C95.0851 28.0696 96.8147 28.3578 98.3367 28.9343C99.8817 29.4878 101.358 30.3064 102.764 31.3903C102.949 31.5517 103.053 31.7477 103.076 31.9783C103.099 32.209 103.041 32.4165 102.903 32.601L100.205 36.4406C100.066 36.6251 99.8817 36.7404 99.6511 36.7865C99.4205 36.8326 99.213 36.7865 99.0285 36.6481C97.8524 35.9102 96.757 35.3913 95.7423 35.0915C94.7277 34.7687 93.7937 34.6073 92.9405 34.6073C92.6868 34.6073 92.387 34.6188 92.0411 34.6418C91.7183 34.6418 91.4069 34.688 91.1072 34.7802C90.8074 34.8494 90.5537 34.9762 90.3462 35.1607C90.1617 35.3452 90.0694 35.5989 90.0694 35.9217C90.0694 36.2446 90.3116 36.5328 90.7958 36.7865C91.2801 37.0402 91.8336 37.2592 92.4562 37.4437C93.0788 37.6282 93.6784 37.7781 94.2549 37.8934C94.8315 37.9856 95.2004 38.0433 95.3618 38.0664C96.192 38.2278 97.1029 38.4699 98.0945 38.7928C99.0861 39.0926 100.009 39.5538 100.862 40.1764C101.738 40.776 102.465 41.5716 103.041 42.5632C103.641 43.5317 103.94 44.7539 103.94 46.2298C103.94 47.6135 103.698 48.8126 103.214 49.8273C102.73 50.8189 102.049 51.6375 101.173 52.2832C100.32 52.9289 99.2822 53.4132 98.0599 53.7361C96.8608 54.0359 95.5233 54.1857 94.0474 54.1857C92.8482 54.1857 91.7298 54.082 90.6921 53.8744C89.6543 53.6899 88.6858 53.4247 87.7864 53.0788C86.8871 52.7329 86.0453 52.3294 85.2613 51.8682C84.5003 51.3839 83.7969 50.8765 83.1512 50.3462C82.9667 50.2078 82.863 50.0233 82.8399 49.7927C82.8169 49.539 82.8745 49.32 83.0129 49.1355L85.6764 45.2959C85.8147 45.1114 85.9992 44.9961 86.2298 44.95C86.4604 44.9038 86.668 44.9384 86.8525 45.0537Z" fill="#FEC426"/>
<path d="M55.6133 41.0752C55.6133 39.2764 55.9592 37.5815 56.651 35.9903C57.3428 34.3991 58.2768 33.0155 59.4529 31.8394C60.629 30.6402 62.0126 29.6947 63.6038 29.0029C65.195 28.3111 66.8899 27.9652 68.6887 27.9652C70.4874 27.9652 72.1824 28.3111 73.7735 29.0029C75.3647 29.6947 76.7484 30.6402 77.9245 31.8394C79.1236 33.0155 80.0691 34.3991 80.7609 35.9903C81.4527 37.5815 81.7986 39.2764 81.7986 41.0752C81.7986 42.8739 81.4527 44.5689 80.7609 46.16C80.0691 47.7512 79.1236 49.1464 77.9245 50.3456C76.7484 51.5216 75.3647 52.4556 73.7735 53.1474C72.1824 53.8392 70.4874 54.1851 68.6887 54.1851C66.8899 54.1851 65.195 53.8392 63.6038 53.1474C62.0126 52.4556 60.629 51.5216 59.4529 50.3456C58.2768 49.1464 57.3428 47.7512 56.651 46.16C55.9592 44.5689 55.6133 42.8739 55.6133 41.0752ZM62.4623 41.0752C62.4623 41.9515 62.6237 42.7817 62.9466 43.5657C63.2694 44.3498 63.7076 45.0416 64.261 45.6412C64.8375 46.2408 65.5063 46.725 66.2673 47.094C67.0283 47.4399 67.8354 47.6129 68.6887 47.6129C69.5419 47.6129 70.349 47.4399 71.11 47.094C71.871 46.725 72.5398 46.2408 73.1163 45.6412C73.6928 45.0416 74.1425 44.3498 74.4654 43.5657C74.7882 42.7817 74.9496 41.9515 74.9496 41.0752C74.9496 40.2219 74.7882 39.4033 74.4654 38.6192C74.1425 37.8121 73.6928 37.1203 73.1163 36.5438C72.5398 35.9442 71.871 35.4714 71.11 35.1255C70.349 34.7566 69.5419 34.5721 68.6887 34.5721C67.8354 34.5721 67.0283 34.7566 66.2673 35.1255C65.5063 35.4714 64.8375 35.9442 64.261 36.5438C63.7076 37.1203 63.2694 37.8121 62.9466 38.6192C62.6237 39.4033 62.4623 40.2219 62.4623 41.0752Z" fill="#FEC426"/>
<path d="M28.3509 41.075C28.3509 39.2763 28.6968 37.5813 29.3886 35.9901C30.0804 34.3989 31.0144 33.0153 32.1905 31.8392C33.3666 30.6401 34.7502 29.6946 36.3414 29.0028C37.9326 28.3109 39.6275 27.965 41.4263 27.965C43.225 27.965 44.92 28.3109 46.5111 29.0028C48.1023 29.6946 49.486 30.6401 50.6621 31.8392C51.8612 33.0153 52.8067 34.3989 53.4985 35.9901C54.1903 37.5813 54.5362 39.2763 54.5362 41.075C54.5362 42.8737 54.1903 44.5687 53.4985 46.1599C52.8067 47.7511 51.8612 49.1462 50.6621 50.3454C49.486 51.5215 48.1023 52.4554 46.5111 53.1473C44.92 53.8391 43.225 54.185 41.4263 54.185C39.6275 54.185 37.9326 53.8391 36.3414 53.1473C34.7502 52.4554 33.3666 51.5215 32.1905 50.3454C31.0144 49.1462 30.0804 47.7511 29.3886 46.1599C28.6968 44.5687 28.3509 42.8737 28.3509 41.075ZM35.1999 41.075C35.1999 41.9513 35.3613 42.7815 35.6842 43.5656C36.007 44.3496 36.4452 45.0414 36.9986 45.641C37.5751 46.2406 38.2439 46.7249 39.0049 47.0938C39.7659 47.4397 40.573 47.6127 41.4263 47.6127C42.2795 47.6127 43.0866 47.4397 43.8476 47.0938C44.6086 46.7249 45.2774 46.2406 45.8539 45.641C46.4304 45.0414 46.8801 44.3496 47.203 43.5656C47.5258 42.7815 47.6872 41.9513 47.6872 41.075C47.6872 40.2218 47.5258 39.4031 47.203 38.619C46.8801 37.8119 46.4304 37.1201 45.8539 36.5436C45.2774 35.944 44.6086 35.4713 43.8476 35.1254C43.0866 34.7564 42.2795 34.5719 41.4263 34.5719C40.573 34.5719 39.7659 34.7564 39.0049 35.1254C38.2439 35.4713 37.5751 35.944 36.9986 36.5436C36.4452 37.1201 36.007 37.8119 35.6842 38.619C35.3613 39.4031 35.1999 40.2218 35.1999 41.075Z" fill="#FEC426"/>
<path d="M0.873835 53.2507V36.7945L4.82651 27.993H20.4042V33.5982H27.103V40.175H20.4042V34.4438H8.13874V53.2507H0.873835Z" fill="#FEC426"/>
<path d="M20.5445 46.4499H13.9872V39.8926H20.5445V46.4499Z" fill="#FEC426"/>
<path d="M27.1015 53.0088H20.5443V46.4515H27.1015V53.0088Z" fill="#FEC426"/>
<path d="M27.1044 46.4508L20.5472 39.8935L18.4828 43.5365L21.1543 47.3008L27.1044 46.4508Z" fill="#FEC426"/>
</svg>
