<svg width="2206" height="2053" viewBox="0 0 2206 2053" fill="none" xmlns="http://www.w3.org/2000/svg">
<path fill-rule="evenodd" clip-rule="evenodd" d="M1104.51 1708.96C1119.71 1769.53 1138.58 1852.36 1145.93 1884.34L1146.14 1885.42C1138.8 1887.58 1133.9 1884.34 1129.15 1881.1C1127.49 1880.02 1125.9 1878.94 1124.25 1878.14C1122.45 1877.28 1120.72 1876.27 1118.85 1875.41C1110.85 1871.23 1102.86 1867.12 1093.85 1865.47C1082.47 1863.31 1078.01 1865.97 1082.47 1878.79C1091.98 1905.87 1109.7 1920.78 1138.58 1921.79H1140.81C1145.93 1921.79 1151.19 1921.79 1152.7 1928.78C1154.28 1936.2 1153.56 1943.69 1147.3 1948.44C1142.25 1952.33 1136.13 1955.07 1130.08 1957.16C1125.9 1958.67 1121.65 1959.61 1117.33 1960.61C1114.67 1961.19 1112.08 1961.77 1109.41 1962.56C1092.41 1967.24 1069.72 1988.85 1075.27 1995.19C1085.21 2006.49 1099.69 2005.2 1113.37 2003.97C1114.6 2003.9 1115.89 2003.76 1117.05 2003.69C1122.81 2003.18 1129.15 2002.61 1134.04 1999.94C1164.22 1983.09 1192.46 1991.15 1221.27 2004.26C1250.65 2017.59 1280.76 2029.54 1310.8 2041.43C1312.02 2041.93 1313.39 2042.44 1314.68 2043.01C1324.84 2047.05 1335.64 2049.71 1346.3 2051.8C1346.45 2051.8 1346.66 2051.8 1346.81 2051.87C1352.71 2053.02 1360.06 2054.54 1363.88 2047.48C1367.48 2040.64 1365.53 2033.5 1361.72 2027.02C1356.68 2018.31 1349.11 2012.18 1340.33 2007.65C1334.78 2004.77 1329.16 2002.03 1323.47 1999.36C1320.95 1998.14 1318.43 1996.92 1315.91 1995.69C1334.71 1993.24 1352.64 1996.27 1370.65 1999.22C1377.28 2000.3 1383.83 2001.45 1390.46 2002.25C1392.62 2002.53 1394.78 2002.97 1396.79 2003.4C1399.75 2003.97 1402.7 2004.62 1405.73 2004.84C1407.74 2004.91 1409.9 2005.27 1412.06 2005.7C1418.76 2006.85 1425.68 2008.15 1428.7 2001.31C1433.17 1991.23 1424.24 1982.8 1416.67 1976.82C1396.79 1961.33 1374.03 1951.39 1349.04 1950.1C1317.35 1948.37 1285.44 1948.23 1253.75 1948.95C1240.35 1949.23 1232.93 1944.48 1229.26 1932.16C1216.22 1887.87 1197.57 1788.33 1185.33 1721.78C1157.52 1719.25 1133.76 1715.01 1104.22 1709.1L1104.37 1708.81L1104.51 1708.96Z" fill="black"/>
<path fill-rule="evenodd" clip-rule="evenodd" d="M1274.93 1615.54C1290.12 1676.11 1308.99 1758.94 1316.34 1790.92L1316.56 1792C1309.21 1794.23 1304.31 1790.92 1299.56 1787.68C1297.9 1786.6 1296.32 1785.52 1294.66 1784.65C1292.86 1783.79 1291.06 1782.78 1289.26 1781.92C1281.26 1777.74 1273.27 1773.63 1264.27 1771.98C1252.89 1769.82 1248.42 1772.48 1252.89 1785.3C1262.32 1812.38 1280.11 1827.29 1308.99 1828.3H1311.23C1316.34 1828.3 1321.6 1828.3 1323.11 1835.29C1324.7 1842.71 1323.98 1850.2 1317.71 1854.95C1312.67 1858.84 1306.55 1861.51 1300.5 1863.67C1296.32 1865.18 1292.07 1866.12 1287.75 1867.12C1285.08 1867.7 1282.49 1868.28 1279.82 1869.07C1262.9 1873.75 1240.14 1895.36 1245.68 1901.7C1255.62 1913 1270.1 1911.71 1283.79 1910.48C1285.01 1910.34 1286.31 1910.27 1287.46 1910.2C1293.22 1909.69 1299.56 1909.12 1304.46 1906.45C1334.64 1889.6 1362.87 1897.66 1391.68 1910.7C1421.07 1924.02 1451.17 1935.98 1481.21 1947.87C1482.43 1948.37 1483.8 1948.87 1485.1 1949.45C1495.25 1953.48 1506.06 1956.15 1516.72 1958.24C1516.86 1958.24 1517.08 1958.24 1517.22 1958.31C1523.13 1959.46 1530.47 1960.97 1534.29 1953.92C1537.89 1947.07 1535.95 1939.94 1532.13 1933.46C1527.09 1924.75 1519.45 1918.62 1510.74 1914.09C1505.19 1911.2 1499.58 1908.47 1493.89 1905.73C1491.36 1904.51 1488.84 1903.28 1486.32 1902.06C1505.05 1899.61 1523.06 1902.63 1541.06 1905.59C1547.69 1906.67 1554.24 1907.82 1560.94 1908.61C1563.1 1908.9 1565.26 1909.33 1567.28 1909.76C1570.23 1910.34 1573.19 1910.99 1576.21 1911.13C1578.23 1911.2 1580.39 1911.56 1582.55 1912C1589.25 1913.15 1596.16 1914.45 1599.19 1907.6C1603.65 1897.59 1594.72 1889.09 1587.16 1883.11C1567.28 1867.63 1544.52 1857.69 1519.53 1856.39C1487.84 1854.66 1455.93 1854.52 1424.24 1855.24C1410.84 1855.53 1403.42 1850.77 1399.75 1838.46C1386.71 1794.16 1368.06 1694.62 1355.81 1628.07C1328.01 1625.55 1304.24 1621.3 1274.71 1615.39H1274.78L1274.93 1615.54Z" fill="black"/>
<path d="M1219.9 667.674V539.324L1896.58 130.576C2318.3 472.052 2134.2 889.299 1924.24 1024.13L1219.97 667.674H1219.9Z" fill="white"/>
<path fill-rule="evenodd" clip-rule="evenodd" d="M3.52231 799.842C12.0934 763.973 27.435 730.697 45.3695 699.006C103.927 595.36 189.782 527.656 306.752 508.641C310.065 508.137 313.45 507.705 316.764 507.128L317.916 506.984H318.132C485.233 476.085 660.544 581.243 717.012 617.616C722.558 620.93 728.104 624.531 733.362 628.276C746.039 636.271 739.485 624.747 730.841 612.358C730.841 612.358 716.436 592.263 693.316 571.736C686.545 566.19 678.19 559.563 668.395 552.433C667.53 551.857 666.666 551.28 665.946 550.632C589.166 495.748 425.667 410.325 210.021 472.196C208.869 472.556 207.644 472.844 206.42 473.204C202.962 474.212 199.361 475.293 195.832 475.869C189.998 476.805 184.38 474.429 181.427 469.531C178.185 463.985 182.003 459.519 185.892 456.134C189.782 452.821 193.599 449.436 197.849 446.555C256.694 406.436 322.166 389.078 392.175 384.036C687.194 362.932 913.211 387.205 913.211 990.279C913.211 1098.97 932.01 1122.01 996.041 1126.12C1131.81 1134.84 1247.2 990.999 1249.29 886.706C1251.23 790.047 1255.26 710.242 1293.73 621.794C1299.56 608.253 1304.82 594.568 1306.4 590.607C1306.55 590.174 1306.69 589.814 1306.76 589.598V589.454C1308.63 585.349 1310.65 581.171 1312.81 576.85C1317.13 568.495 1321.53 560.86 1325.99 553.873C1331.39 546.167 1337.59 534.714 1334.49 523.478C1331.47 512.098 1320.59 505.976 1316.49 503.599C1291.06 489.338 1270.03 456.638 1258.43 429.484C1242.8 392.895 1240.35 352.128 1241.07 312.298C1242.01 262.456 1248.35 211.461 1270.46 166.733C1275.57 185.676 1282.85 204.691 1295.89 219.384C1308.92 234.078 1327.58 250.932 1345.44 242.721C1366.69 232.925 1369.57 130.36 1365.46 105.151C1398.74 119.412 1448.44 151.104 1479.55 221.113C1495.61 192.735 1492.44 99.605 1488.2 74.0357C1534.65 93.987 1609.2 143.613 1638.73 266.777C1654.14 260.295 1651.98 186.901 1648.96 168.606C1682.59 183.083 1739.28 221.905 1750.66 326.487C1763.48 311.434 1772.91 293.499 1778.17 274.484C1819.66 309.201 1834.35 338.155 1825.71 390.518C1821.46 416.304 1819.01 430.709 1808.35 454.045C1828.09 484.08 1834.93 522.326 1830.68 559.563C1850.63 562.228 1865.97 567.198 1872.02 569.431C1925.03 589.814 1962.41 627.772 1984.17 682.008C1987.34 689.931 1986.26 691.803 1977.68 692.019C1973.51 692.091 1969.4 692.307 1965.22 692.524C1948.37 693.604 1918.26 697.277 1899.39 708.729C1897.52 709.954 1895.72 711.25 1893.77 712.763C1891.69 714.491 1890.03 715.788 1888.52 716.868C1888.01 717.3 1887.58 717.661 1887 718.093C1885.78 719.101 1884.48 720.181 1883.26 721.19C1872.09 730.769 1863.52 737.828 1857.19 743.158C1857.4 744.742 1857.54 746.399 1857.69 748.272C1858.48 757.059 1859.63 768.511 1866.48 779.819C1882.9 806.613 1915.96 856.671 1933.32 882.816C1945.56 901.255 1955.57 920.702 1958.53 942.886C1961.91 968.815 1955.5 991.72 1936.05 1010.23C1927.27 1020.39 1916.39 1027.88 1903.93 1033.06C1903.93 1033.06 1903.79 1033.13 1903.79 1033.21C1903.64 1033.28 1903.57 1033.42 1903.43 1033.57C1902.99 1034 1902.49 1034.43 1901.84 1034.72C1893.34 1038.82 1884.41 1041.2 1875.41 1041.99C1868.49 1100.41 1856.61 1157.31 1844.72 1205.28C1771.55 1482.36 1492.16 1597.6 1492.08 1597.6C1490.72 1598.18 1488.34 1607.61 1485.82 1617.34C1483.44 1626.41 1481.06 1635.7 1479.48 1638.3C1474.01 1647.23 1465 1656.23 1457.3 1664.08C1456.36 1665.02 1455.35 1666.1 1454.42 1666.96C1432.09 1689.58 1405.01 1705.43 1374.68 1714.79C1336 1726.82 1294.95 1728.62 1254.4 1728.33C1183.31 1727.9 1150.32 1721.06 1087.44 1708.16C1081.1 1706.79 1074.48 1705.5 1067.42 1704.06C1045.52 1699.59 1023.7 1694.48 1003.75 1684.61C974.578 1670.13 972.057 1647.23 969.392 1623.17C967.159 1602.79 964.854 1581.69 946.199 1564.11C900.247 1520.82 873.309 1462.05 857.247 1401.84C852.565 1384.12 849.901 1366.33 853.574 1348.54C855.302 1340.25 852.71 1336.15 847.308 1330.89C836.216 1320.01 825.844 1308.49 816.769 1295.96C792.064 1271.11 772.761 1241.29 759.652 1205.28C758.644 1202.32 757.923 1199.23 757.275 1196.06C756.195 1190.58 755.042 1185.04 751.513 1180.28C747.551 1182.8 746.399 1186.62 745.247 1190.22C745.031 1190.8 744.887 1191.45 744.67 1192.1C728.104 1241.58 721.046 1291.64 734.371 1343.42C735.019 1345.87 736.099 1348.54 737.108 1351.35C740.781 1361 744.959 1371.73 734.515 1377.28C721.406 1384.26 712.547 1371.87 705.416 1361.79C704.552 1360.57 703.688 1359.34 702.823 1358.26C650.749 1288.03 651.109 1180.21 715.86 1108.26C716.436 1107.61 717.373 1106.67 718.309 1105.74C723.279 1100.84 731.346 1092.92 725.007 1088.23C722.774 1086.58 719.821 1086.36 717.012 1086.58C710.458 1087.08 702.751 1091.55 696.701 1094.93C696.341 1095.15 695.981 1095.37 695.621 1095.51C695.333 1095.65 695.117 1095.8 694.828 1095.94C687.842 1099.9 681.36 1104.44 675.309 1109.7C663.281 1120.14 653.629 1133.03 646.139 1147.15C642.033 1154.79 638.648 1162.85 635.839 1170.99C614.087 1233.94 613.439 1298.12 632.598 1362.37C633.102 1364.17 634.11 1366.04 635.047 1367.98C638.144 1374.25 641.601 1381.24 632.958 1386.35C621.866 1392.98 614.447 1384.84 607.533 1377.42C607.029 1376.84 606.452 1376.27 605.876 1375.62C604.364 1374.03 603.139 1372.23 601.915 1370.43C601.267 1369.5 600.546 1368.42 599.826 1367.48C556.61 1309.43 544.798 1244.03 553.945 1173.51C554.45 1169.55 555.026 1165.59 555.818 1161.63C561.58 1130.44 574.473 1100.7 595.432 1076.64C618.409 1050.28 649.524 1031.91 681.576 1019.02C684.817 1017.65 688.058 1016.21 690.939 1014.19C703.904 1005.4 695.116 1001.08 688.346 1000.58C639.224 996.834 593.56 1004.9 557.475 1041.92C529.889 1070.23 513.755 1104.37 506.12 1142.97C498.629 1180.79 494.74 1218.82 498.413 1257.35V1258.07C499.134 1264.34 499.998 1271.9 491.355 1274.35C483.504 1276.58 478.39 1271.18 474.501 1265.63C467.442 1255.41 462.04 1244.24 458.295 1232.29C443.89 1186.84 442.305 1140.6 447.563 1093.42C450.372 1068.5 457.863 1044.15 470.035 1022.19C485.593 993.881 508.713 969.896 536.515 953.33C550.488 944.975 565.686 938.492 581.531 934.315C596.873 930.065 612.791 928.625 628.708 927.112C633.678 926.68 638.576 926.176 643.474 925.6C644.626 925.456 645.923 925.384 647.147 925.312C651.109 925.024 655.142 924.735 658.887 923.223C666.81 919.982 660.76 914.364 655.43 911.843C655.142 911.699 654.926 911.627 654.638 911.483C654.35 911.339 654.062 911.267 653.774 911.123C626.548 905.288 597.953 899.742 571.088 902.984C530.609 907.881 490.923 914.868 456.926 936.404C427.612 955.058 401.538 978.539 379.714 1005.62C355.946 1035.08 337.147 1068.36 322.454 1103.22C300.774 1154.86 289.826 1209.09 289.898 1265.49C289.898 1274.93 289.034 1284.43 288.097 1293.87C288.025 1294.95 287.881 1296.17 287.809 1297.25C287.377 1302.01 285 1305.9 280.03 1307.05C274.772 1308.2 272.828 1303.95 271.243 1300.35C270.955 1299.78 270.739 1299.27 270.451 1298.69C268.65 1295.31 267.066 1291.71 266.057 1288.03C248.627 1224.72 247.114 1160.91 257.342 1096.66C264.329 1053.01 276.285 1011.09 296.668 971.84C300.63 964.35 304.663 957.003 308.985 949.801C317.772 935.035 327.496 921.206 337.939 908.098C434.094 809.782 544.582 804.308 637.136 812.375C637.64 809.926 635.767 806.685 633.75 804.668C625.179 796.673 614.231 791.631 603.283 787.166C571.952 774.489 538.676 765.918 504.896 764.117C461.752 761.813 422.354 773.553 383.028 789.903C349.031 803.948 317.628 823.755 289.898 847.956C259.647 874.317 234.078 905.577 212.398 939.285C180.274 989.127 159.027 1043.79 148.871 1102.64C147.214 1112 144.765 1121.22 142.244 1130.44C141.812 1132.17 141.38 1133.76 140.876 1135.48C139.508 1140.31 136.338 1143.98 131.008 1144.2C125.39 1144.49 124.022 1139.52 123.014 1135.63C123.014 1135.41 122.869 1135.2 122.797 1134.91C121.141 1128.86 119.844 1122.66 119.34 1116.4C113.794 1049.2 123.878 984.085 145.63 920.774C160.899 876.55 181.067 834.991 209.445 797.826C214.847 790.695 220.465 783.852 226.299 777.154C238.183 763.469 250.86 750.721 264.185 738.908C407.444 635.983 547.679 678.983 650.965 710.53C664.361 714.636 677.11 718.525 689.282 721.91C696.557 723.927 700.663 714.275 694.468 710.026C503.887 581.964 356.09 587.293 260.511 619.345C260.511 619.345 132.953 658.599 27.435 810.646C26.2105 812.519 24.9141 814.68 23.5456 816.912C19.9443 823.251 15.9828 830.237 10.1487 830.958C9.35643 831.03 6.90753 831.246 4.81878 830.021C-0.799254 826.636 -1.37547 814.464 3.88243 799.77V799.626L3.52231 799.842ZM308.841 949.945C308.193 950.881 307.472 951.817 306.824 952.682C307.112 952.322 307.4 951.961 307.616 951.529C307.976 951.025 308.337 950.521 308.769 949.945H308.841Z" fill="black"/>
<path fill-rule="evenodd" clip-rule="evenodd" d="M1536.09 463.553C1488.34 498.917 1461.91 559.203 1472.78 621.65C1488.12 709.81 1572.11 768.871 1660.34 753.529C1748.57 738.188 1807.63 654.205 1792.29 566.046C1792.15 565.253 1792 564.317 1791.86 563.525C1656.45 591.039 1575.2 518.22 1536.02 463.553H1536.09Z" fill="white"/>
<path fill-rule="evenodd" clip-rule="evenodd" d="M1592.92 522.398C1579.88 541.557 1573.98 565.686 1578.23 590.246C1586.94 640.593 1634.91 674.301 1685.26 665.514C1732.36 657.303 1764.99 614.807 1761.75 568.062C1688.72 575.481 1633.11 552.721 1592.85 522.326H1592.92V522.398ZM1617.91 614.735C1619.72 625.035 1629.58 631.95 1639.88 630.149C1650.18 628.348 1657.1 618.481 1655.3 608.181C1653.5 597.881 1643.63 590.967 1633.33 592.767C1623.03 594.568 1616.11 604.436 1617.91 614.735Z" fill="black"/>
<path fill-rule="evenodd" clip-rule="evenodd" d="M1461.19 1163.14C1145.57 1078.58 958.3 754.178 1042.86 438.632C1127.42 123.013 1451.75 -64.2544 1767.37 20.3042C1839.68 39.6792 1905.3 71.6588 1962.34 113.218L1256.92 539.396V667.746L1997.49 1042.5C1854.38 1163.86 1656.09 1215.36 1461.19 1163.14Z" fill="black"/>
<path fill-rule="evenodd" clip-rule="evenodd" d="M1938.21 127.839C1933.6 120.204 1923.66 117.755 1916.03 122.365L1240.86 530.321V677.614L1949.38 1036.16C1957.3 1040.19 1967.02 1036.95 1970.99 1029.03C1975.02 1021.11 1971.78 1011.38 1963.86 1007.42L1272.98 657.807V548.471L1932.74 149.951C1940.38 145.341 1942.82 135.402 1938.21 127.767H1938.14L1938.21 127.839Z" fill="white"/>
<path fill-rule="evenodd" clip-rule="evenodd" d="M1479.05 1096.37C1200.31 1021.75 1034.86 735.163 1109.55 456.494C1184.25 177.753 1470.77 12.3093 1749.51 87.0004C2028.25 161.691 2193.69 448.211 2119 726.952C2044.31 1005.69 1757.79 1171.14 1479.05 1096.45V1096.37ZM1461.19 1163.07C1145.57 1078.58 958.3 754.178 1042.86 438.632C1127.42 123.013 1451.75 -64.2544 1767.37 20.3042C2082.99 104.863 2270.25 429.196 2185.7 744.814C2101.14 1060.43 1776.8 1247.7 1461.19 1163.14V1163.07Z" fill="black"/>
<path d="M1169.34 596.945C1169.34 656.654 1217.81 705.128 1277.52 705.128C1337.23 705.128 1385.7 656.654 1385.7 596.945C1385.7 537.235 1337.23 488.762 1277.52 488.762C1217.81 488.762 1169.34 537.235 1169.34 596.945Z" fill="white"/>
</svg>
